<?xml version="1.0" encoding="utf-8"?><svg xmlns="http://www.w3.org/2000/svg" xmlns:xlink="http://www.w3.org/1999/xlink"><symbol viewBox="0 0 464 500" id="linkDownload" xmlns="http://www.w3.org/2000/svg"><path d="M357.143 375c0-9.766-8.091-17.857-17.857-17.857s-17.857 8.091-17.857 17.857 8.091 17.857 17.857 17.857 17.857-8.091 17.857-17.857zm71.428 0c0-9.766-8.091-17.857-17.857-17.857s-17.857 8.091-17.857 17.857 8.091 17.857 17.857 17.857 17.857-8.091 17.857-17.857zm35.715-62.5v89.286c0 14.788-11.998 26.786-26.786 26.786H26.786C11.998 428.572 0 416.574 0 401.786V312.5c0-14.788 11.998-26.786 26.786-26.786h129.743l37.667 37.946c10.324 10.044 23.716 15.625 37.946 15.625s27.623-5.581 37.946-15.625l37.946-37.946h129.464c14.788 0 26.786 11.998 26.786 26.786zm-90.681-158.761c2.79 6.696 1.395 14.509-3.906 19.531l-125 125c-3.348 3.627-8.091 5.301-12.556 5.301s-9.208-1.674-12.556-5.301l-125-125c-5.301-5.022-6.696-12.835-3.906-19.531 2.79-6.417 9.208-10.882 16.462-10.882h71.429v-125C178.572 8.091 186.663 0 196.429 0h71.429c9.766 0 17.857 8.091 17.857 17.857v125h71.429c7.254 0 13.672 4.464 16.462 10.882z"/></symbol><symbol viewBox="0 0 600 600" id="linkExternal" xmlns="http://www.w3.org/2000/svg"><path d="M442.8 344.6v89.3c0 22.1-7.9 41.1-23.6 56.8-15.7 15.7-34.6 23.6-56.8 23.6h-232c-22.1 0-41.1-7.9-56.8-23.6S50 456.1 50 433.9V201.8c0-22.1 7.9-41.1 23.6-56.8s34.6-23.6 56.8-23.6h196.4c2.6 0 4.7.8 6.4 2.5 1.7 1.7 2.5 3.8 2.5 6.4v17.9c0 2.6-.8 4.7-2.5 6.4s-3.8 2.5-6.4 2.5H130.4c-12.3 0-22.8 4.4-31.5 13.1s-13.1 19.2-13.1 31.5v232.1c0 12.3 4.4 22.8 13.1 31.5s19.2 13.1 31.5 13.1h232.1c12.3 0 22.8-4.4 31.5-13.1s13.1-19.2 13.1-31.5v-89.3c0-2.6.8-4.7 2.5-6.4 1.7-1.7 3.8-2.5 6.4-2.5h17.9c2.6 0 4.7.8 6.4 2.5 1.7 1.8 2.5 3.9 2.5 6.5zm107.2-241v142.9c0 4.8-1.8 9-5.3 12.6-3.5 3.5-7.7 5.3-12.6 5.3-4.8 0-9-1.8-12.6-5.3L470.4 210 288.6 391.8c-1.9 1.9-4 2.8-6.4 2.8s-4.6-.9-6.4-2.8L243.9 360c-1.9-1.9-2.8-4-2.8-6.4s.9-4.6 2.8-6.4l181.9-181.9-49.1-49.1c-3.5-3.5-5.3-7.7-5.3-12.6 0-4.8 1.8-9 5.3-12.6 3.5-3.5 7.7-5.3 12.6-5.3h142.9c4.8 0 9 1.8 12.6 5.3 3.4 3.6 5.2 7.8 5.2 12.6z"/></symbol><symbol viewBox="0 0 600 600" id="linkMore" xmlns="http://www.w3.org/2000/svg"><path d="M445.8 300c0 4.3-1.7 8.2-5 11.5L207.3 545c-3.3 3.3-7.2 5-11.5 5s-8.2-1.7-11.5-5l-25-25c-3.3-3.3-5-7.2-5-11.5s1.7-8.2 5-11.5l196.9-197-197-196.9c-3.3-3.3-5-7.2-5-11.5s1.7-8.2 5-11.5l25-25c3.3-3.3 7.2-5 11.5-5s8.2 1.7 11.5 5l233.5 233.5c3.4 3.2 5.1 7.1 5.1 11.4z"/></symbol><symbol viewBox="0 0 429 500" id="linkPdf" xmlns="http://www.w3.org/2000/svg"><path d="M409.598 106.027c10.324 10.324 18.973 30.971 18.973 45.759v321.429c0 14.788-11.998 26.786-26.786 26.786h-375c-14.788 0-26.786-11.998-26.786-26.786V26.786C-.001 11.998 11.997 0 26.785 0h250c14.788 0 35.435 8.649 45.759 18.973zM285.714 37.946v104.911h104.911c-1.674-4.743-4.185-9.487-6.138-11.44l-87.333-87.333c-1.953-1.953-6.696-4.464-11.44-6.138zm107.143 426.34V178.572H276.786c-14.788 0-26.786-11.998-26.786-26.786V35.715H35.714v428.571h357.143zM249.442 298.828c6.976 5.581 14.788 10.603 23.438 15.625a275.625 275.625 0 0 1 32.645-1.953c18.694 0 42.411 2.232 49.386 13.672 1.953 2.79 3.627 7.813.558 14.509-.279.279-.558.837-.837 1.116v.279c-.837 5.022-5.022 10.603-19.81 10.603-17.857 0-44.922-8.091-68.359-20.368-38.784 4.185-79.52 12.835-109.375 23.159-28.739 49.107-50.781 73.103-67.522 73.103-2.79 0-5.301-.558-7.813-1.953l-6.696-3.348c-.837-.279-1.116-.837-1.674-1.395-1.395-1.395-2.511-4.464-1.674-10.044 2.79-12.835 17.857-34.319 52.456-52.456 2.232-1.395 5.022-.558 6.417 1.674.279.279.558.837.558 1.116 8.649-14.23 18.694-32.366 29.855-54.966 12.556-25.112 22.321-49.665 29.018-73.103-8.929-30.413-11.719-61.663-6.696-80.078 1.953-6.976 6.138-11.161 11.719-11.161h6.138c4.185 0 7.534 1.395 9.766 4.185 3.348 3.906 4.185 10.044 2.511 18.973-.279.837-.558 1.674-1.116 2.232.279.837.279 1.395.279 2.232v8.371c-.279 17.578-.558 34.319-3.906 53.571 9.766 29.297 24.274 53.013 40.737 66.406zM88.728 413.504c8.371-3.906 20.368-15.904 38.226-44.085-20.926 16.183-34.04 34.598-38.226 44.085zm111.049-256.696c-2.79 7.813-2.79 21.206-.558 36.831.837-4.464 1.395-8.649 1.953-12.277.558-4.743 1.395-8.649 1.953-11.998.279-.837.558-1.395 1.116-2.232-.279-.279-.279-.837-.558-1.395-.279-5.022-1.953-8.091-3.627-10.044 0 .558-.279.837-.279 1.116zm-34.598 184.431c24.554-9.766 51.897-17.578 79.241-22.601-2.79-2.232-5.581-4.185-8.091-6.417-13.672-11.998-25.949-28.739-35.435-49.107-5.301 17.02-13.114 35.156-23.159 54.966-4.185 7.813-8.371 15.625-12.556 23.159zm180.245-4.465c-1.395-1.395-8.649-6.696-39.063-6.696 13.672 5.022 26.228 7.813 34.598 7.813 2.511 0 3.906 0 5.022-.279 0-.279-.279-.558-.558-.837z"/></symbol></svg>