<?xml version="1.0" encoding="utf-8"?>
<!-- Generator: Adobe Illustrator 19.2.0, SVG Export Plug-In . SVG Version: 6.00 Build 0)  -->
<svg version="1.1" id="レイヤー_1" xmlns="http://www.w3.org/2000/svg" xmlns:xlink="http://www.w3.org/1999/xlink" x="0px"
	 y="0px" width="600px" height="600px" viewBox="0 0 600 600" enable-background="new 0 0 600 600" xml:space="preserve">
<path d="M442.8,344.6v89.3c0,22.1-7.9,41.1-23.6,56.8c-15.7,15.7-34.6,23.6-56.8,23.6h-232c-22.1,0-41.1-7.9-56.8-23.6
	S50,456.1,50,433.9V201.8c0-22.1,7.9-41.1,23.6-56.8s34.6-23.6,56.8-23.6h196.4c2.6,0,4.7,0.8,6.4,2.5c1.7,1.7,2.5,3.8,2.5,6.4v17.9
	c0,2.6-0.8,4.7-2.5,6.4s-3.8,2.5-6.4,2.5H130.4c-12.3,0-22.8,4.4-31.5,13.1s-13.1,19.2-13.1,31.5v232.1c0,12.3,4.4,22.8,13.1,31.5
	s19.2,13.1,31.5,13.1h232.1c12.3,0,22.8-4.4,31.5-13.1s13.1-19.2,13.1-31.5v-89.3c0-2.6,0.8-4.7,2.5-6.4c1.7-1.7,3.8-2.5,6.4-2.5
	h17.9c2.6,0,4.7,0.8,6.4,2.5C442,339.9,442.8,342,442.8,344.6z M550,103.6v142.9c0,4.8-1.8,9-5.3,12.6c-3.5,3.5-7.7,5.3-12.6,5.3
	c-4.8,0-9-1.8-12.6-5.3L470.4,210L288.6,391.8c-1.9,1.9-4,2.8-6.4,2.8s-4.6-0.9-6.4-2.8L243.9,360c-1.9-1.9-2.8-4-2.8-6.4
	s0.9-4.6,2.8-6.4l181.9-181.9l-49.1-49.1c-3.5-3.5-5.3-7.7-5.3-12.6c0-4.8,1.8-9,5.3-12.6c3.5-3.5,7.7-5.3,12.6-5.3h142.9
	c4.8,0,9,1.8,12.6,5.3C548.2,94.6,550,98.8,550,103.6L550,103.6z"/>
</svg>
