<?xml version="1.0" encoding="utf-8"?>
<!-- Generated by IcoMoon.io -->
<!DOCTYPE svg PUBLIC "-//W3C//DTD SVG 1.1//EN" "http://www.w3.org/Graphics/SVG/1.1/DTD/svg11.dtd">
<svg version="1.1" xmlns="http://www.w3.org/2000/svg" xmlns:xlink="http://www.w3.org/1999/xlink" width="429" height="500" viewBox="0 0 429 500">
<path d="M409.598 106.027c10.324 10.324 18.973 30.971 18.973 45.759v321.429c0 14.788-11.998 26.786-26.786 26.786h-375c-14.788 0-26.786-11.998-26.786-26.786v-446.429c0-14.788 11.998-26.786 26.786-26.786h250c14.788 0 35.435 8.649 45.759 18.973zM285.714 37.946v104.911h104.911c-1.674-4.743-4.185-9.487-6.138-11.44l-87.333-87.333c-1.953-1.953-6.696-4.464-11.44-6.138zM392.857 464.286v-285.714h-116.071c-14.788 0-26.786-11.998-26.786-26.786v-116.071h-214.286v428.571h357.143zM249.442 298.828c6.976 5.581 14.788 10.603 23.438 15.625 11.719-1.395 22.601-1.953 32.645-1.953 18.694 0 42.411 2.232 49.386 13.672 1.953 2.79 3.627 7.813 0.558 14.509-0.279 0.279-0.558 0.837-0.837 1.116v0.279c-0.837 5.022-5.022 10.603-19.81 10.603-17.857 0-44.922-8.091-68.359-20.368-38.784 4.185-79.52 12.835-109.375 23.159-28.739 49.107-50.781 73.103-67.522 73.103-2.79 0-5.301-0.558-7.813-1.953l-6.696-3.348c-0.837-0.279-1.116-0.837-1.674-1.395-1.395-1.395-2.511-4.464-1.674-10.044 2.79-12.835 17.857-34.319 52.456-52.456 2.232-1.395 5.022-0.558 6.417 1.674 0.279 0.279 0.558 0.837 0.558 1.116 8.649-14.23 18.694-32.366 29.855-54.966 12.556-25.112 22.321-49.665 29.018-73.103-8.929-30.413-11.719-61.663-6.696-80.078 1.953-6.976 6.138-11.161 11.719-11.161h6.138c4.185 0 7.534 1.395 9.766 4.185 3.348 3.906 4.185 10.044 2.511 18.973-0.279 0.837-0.558 1.674-1.116 2.232 0.279 0.837 0.279 1.395 0.279 2.232v8.371c-0.279 17.578-0.558 34.319-3.906 53.571 9.766 29.297 24.274 53.013 40.737 66.406zM88.728 413.504c8.371-3.906 20.368-15.904 38.226-44.085-20.926 16.183-34.040 34.598-38.226 44.085zM199.777 156.808c-2.79 7.813-2.79 21.206-0.558 36.831 0.837-4.464 1.395-8.649 1.953-12.277 0.558-4.743 1.395-8.649 1.953-11.998 0.279-0.837 0.558-1.395 1.116-2.232-0.279-0.279-0.279-0.837-0.558-1.395-0.279-5.022-1.953-8.091-3.627-10.044 0 0.558-0.279 0.837-0.279 1.116zM165.179 341.239c24.554-9.766 51.897-17.578 79.241-22.601-2.79-2.232-5.581-4.185-8.091-6.417-13.672-11.998-25.949-28.739-35.435-49.107-5.301 17.020-13.114 35.156-23.159 54.966-4.185 7.813-8.371 15.625-12.556 23.159zM345.424 336.774c-1.395-1.395-8.649-6.696-39.063-6.696 13.672 5.022 26.228 7.813 34.598 7.813 2.511 0 3.906 0 5.022-0.279 0-0.279-0.279-0.558-0.558-0.837z"></path>
</svg>
