<svg version="1.1" id="レイヤー_1" xmlns="http://www.w3.org/2000/svg" xmlns:xlink="http://www.w3.org/1999/xlink" x="0px"
	 y="0px" width="500px" height="428.6px" viewBox="0 0 500 428.6" style="enable-background:new 0 0 500 428.6;"
	 xml:space="preserve">
<path d="M392.8,258.9v89.3c0,22.1-7.9,41.1-23.6,56.8c-15.7,15.7-34.6,23.6-56.8,23.6h-232c-22.1,0-41.1-7.9-56.8-23.6
	S0,370.4,0,348.2V116.1C0,94,7.9,75,23.6,59.3s34.6-23.6,56.8-23.6h196.4c2.6,0,4.7,0.8,6.4,2.5c1.7,1.7,2.5,3.8,2.5,6.4v17.9
	c0,2.6-0.8,4.7-2.5,6.4s-3.8,2.5-6.4,2.5H80.4c-12.3,0-22.8,4.4-31.5,13.1S35.8,103.7,35.8,116v232.1c0,12.3,4.4,22.8,13.1,31.5
	s19.2,13.1,31.5,13.1h232.1c12.3,0,22.8-4.4,31.5-13.1s13.1-19.2,13.1-31.5v-89.3c0-2.6,0.8-4.7,2.5-6.4c1.7-1.7,3.8-2.5,6.4-2.5
	h17.9c2.6,0,4.7,0.8,6.4,2.5C392,254.2,392.8,256.3,392.8,258.9z M500,17.9v142.9c0,4.8-1.8,9-5.3,12.6c-3.5,3.5-7.7,5.3-12.6,5.3
	c-4.8,0-9-1.8-12.6-5.3l-49.1-49.1L238.6,306.1c-1.9,1.9-4,2.8-6.4,2.8s-4.6-0.9-6.4-2.8l-31.9-31.8c-1.9-1.9-2.8-4-2.8-6.4
	s0.9-4.6,2.8-6.4L375.8,79.6l-49.1-49.1c-3.5-3.5-5.3-7.7-5.3-12.6c0-4.8,1.8-9,5.3-12.6c3.5-3.5,7.7-5.3,12.6-5.3h142.9
	c4.8,0,9,1.8,12.6,5.3C498.2,8.9,500,13.1,500,17.9L500,17.9z"/>
</svg>
