<svg version="1.1" id="レイヤー_1" xmlns="http://www.w3.org/2000/svg" xmlns:xlink="http://www.w3.org/1999/xlink" x="0px"
	 y="0px" width="464.3px" height="428.6px" viewBox="0 0 464.3 428.6" style="enable-background:new 0 0 464.3 428.6;"
	 xml:space="preserve">
<path d="M357.1,375c0-9.8-8.1-17.9-17.9-17.9s-17.9,8.1-17.9,17.9s8.1,17.9,17.9,17.9S357.1,384.8,357.1,375z M428.6,375
	c0-9.8-8.1-17.9-17.9-17.9s-17.9,8.1-17.9,17.9s8.1,17.9,17.9,17.9S428.6,384.8,428.6,375z M464.3,312.5v89.3
	c0,14.8-12,26.8-26.8,26.8H26.8C12,428.6,0,416.6,0,401.8v-89.3c0-14.8,12-26.8,26.8-26.8h129.7l37.7,37.9
	c10.3,10,23.7,15.6,37.9,15.6s27.6-5.6,37.9-15.6l37.9-37.9h129.5C452.3,285.7,464.3,297.7,464.3,312.5L464.3,312.5z M373.6,153.7
	c2.8,6.7,1.4,14.5-3.9,19.5l-125,125c-3.3,3.6-8.1,5.3-12.6,5.3s-9.2-1.7-12.6-5.3l-125-125c-5.3-5-6.7-12.8-3.9-19.5
	c2.8-6.4,9.2-10.9,16.5-10.9h71.4v-125c0-9.8,8.1-17.9,17.9-17.9h71.4c9.8,0,17.9,8.1,17.9,17.9v125h71.4
	C364.4,142.9,370.8,147.3,373.6,153.7L373.6,153.7z"/>
</svg>
