<?xml version="1.0" encoding="utf-8"?>
<!-- Generated by IcoMoon.io -->
<!DOCTYPE svg PUBLIC "-//W3C//DTD SVG 1.1//EN" "http://www.w3.org/Graphics/SVG/1.1/DTD/svg11.dtd">
<svg version="1.1" xmlns="http://www.w3.org/2000/svg" xmlns:xlink="http://www.w3.org/1999/xlink" width="464" height="500" viewBox="0 0 464 500">
<path d="M357.143 375c0-9.766-8.091-17.857-17.857-17.857s-17.857 8.091-17.857 17.857 8.091 17.857 17.857 17.857 17.857-8.091 17.857-17.857zM428.571 375c0-9.766-8.091-17.857-17.857-17.857s-17.857 8.091-17.857 17.857 8.091 17.857 17.857 17.857 17.857-8.091 17.857-17.857zM464.286 312.5v89.286c0 14.788-11.998 26.786-26.786 26.786h-410.714c-14.788 0-26.786-11.998-26.786-26.786v-89.286c0-14.788 11.998-26.786 26.786-26.786h129.743l37.667 37.946c10.324 10.044 23.716 15.625 37.946 15.625s27.623-5.581 37.946-15.625l37.946-37.946h129.464c14.788 0 26.786 11.998 26.786 26.786zM373.605 153.739c2.79 6.696 1.395 14.509-3.906 19.531l-125 125c-3.348 3.627-8.091 5.301-12.556 5.301s-9.208-1.674-12.556-5.301l-125-125c-5.301-5.022-6.696-12.835-3.906-19.531 2.79-6.417 9.208-10.882 16.462-10.882h71.429v-125c0-9.766 8.091-17.857 17.857-17.857h71.429c9.766 0 17.857 8.091 17.857 17.857v125h71.429c7.254 0 13.672 4.464 16.462 10.882z"></path>
</svg>
