<svg version="1.1" id="レイヤー_1" xmlns="http://www.w3.org/2000/svg" xmlns:xlink="http://www.w3.org/1999/xlink" x="0px"
	 y="0px" width="291.6px" height="499.9px" viewBox="0 0 291.6 499.9" style="enable-background:new 0 0 291.6 499.9;"
	 xml:space="preserve">
<path d="M291.6,249.9c0,4.3-1.7,8.2-5,11.5L53.1,494.9c-3.3,3.3-7.2,5-11.5,5s-8.2-1.7-11.5-5l-25-25c-3.3-3.3-5-7.2-5-11.5
	s1.7-8.2,5-11.5l196.9-197L5,53c-3.3-3.3-5-7.2-5-11.5S1.7,33.3,5,30L30,5c3.3-3.3,7.2-5,11.5-5S49.7,1.7,53,5l233.5,233.5
	C289.9,241.7,291.6,245.6,291.6,249.9z"/>
</svg>
